<?xml version="1.0" encoding="utf-8"?>
<!-- Generator: Adobe Illustrator 25.4.1, SVG Export Plug-In . SVG Version: 6.00 Build 0)  -->
<svg version="1.1" id="Layer_1" xmlns="http://www.w3.org/2000/svg" xmlns:xlink="http://www.w3.org/1999/xlink" x="0px" y="0px"
	 viewBox="0 0 500 500" style="enable-background:new 0 0 500 500;" xml:space="preserve">
<style type="text/css">
	.st0{fill:url(#SVGID_1_);}
	.st1{fill:url(#SVGID_00000088097085123192643280000007675443504035463832_);}
	.st2{fill:url(#SVGID_00000052782765716453775190000014701416217922938797_);}
	.st3{opacity:0.4;fill:url(#SVGID_00000173864043743742988980000009318047512354736519_);}
</style>
<g>
	<linearGradient id="SVGID_1_" gradientUnits="userSpaceOnUse" x1="477.9288" y1="-4.7776" x2="38.1316" y2="486.6822">
		<stop  offset="0" style="stop-color:#FBB92C"/>
		<stop  offset="1" style="stop-color:#EA571C"/>
	</linearGradient>
	<polygon class="st0" points="445.57,406.13 390.74,409.73 380.42,463.69 327.67,448.33 299.51,495.49 255.2,463.01 212.61,497.71 
		182.08,452.04 130.19,470.08 117.12,416.72 62.19,415.91 68.16,361.3 16.81,341.76 41.11,292.48 -0.45,256.55 39.22,218.56 
		12.45,170.59 62.73,148.45 53.98,94.23 108.79,90.63 119.13,36.67 171.87,52.03 200.03,4.85 244.34,37.33 286.94,2.64 317.46,48.3 
		369.36,30.27 382.43,83.64 437.36,84.44 431.38,139.04 482.73,158.58 458.44,207.87 500,243.79 460.33,281.79 487.1,329.76 
		436.82,351.89 	"/>
	
		<radialGradient id="SVGID_00000129180310248064527480000017552358248404622981_" cx="33.5115" cy="133.9746" r="351.8393" gradientTransform="matrix(-1 0 0 1 325.6729 0)" gradientUnits="userSpaceOnUse">
		<stop  offset="0" style="stop-color:#FFF4C3"/>
		<stop  offset="0.1559" style="stop-color:#FFE036"/>
		<stop  offset="1" style="stop-color:#EE7525"/>
	</radialGradient>
	<path style="fill:url(#SVGID_00000129180310248064527480000017552358248404622981_);" d="M64.43,250.17
		c0,102.36,82.98,185.35,185.34,185.35c102.36,0,185.34-82.99,185.34-185.35c0-102.35-82.98-185.33-185.34-185.33
		C147.41,64.84,64.43,147.82,64.43,250.17z"/>
	<g>
		
			<radialGradient id="SVGID_00000113355443650698630990000008327099829548746144_" cx="1232.8687" cy="-1680.7384" r="52.8146" gradientTransform="matrix(-0.8392 1.1536 -1.6186 -1.3126 -1363.4894 -3458.197)" gradientUnits="userSpaceOnUse">
			<stop  offset="0" style="stop-color:#FFFFFF"/>
			<stop  offset="1" style="stop-color:#FFFFFF;stop-opacity:0"/>
		</radialGradient>
		<path style="fill:url(#SVGID_00000113355443650698630990000008327099829548746144_);" d="M278.01,231.11
			c-47.2-38.31-65.64-96.6-41.17-130.26c24.48-33.65,82.6-29.86,129.82,8.4c47.19,38.29,65.6,96.62,41.15,130.24
			C383.32,273.17,325.2,269.37,278.01,231.11z"/>
		
			<radialGradient id="SVGID_00000152950854427572141810000017867242786412995474_" cx="-2743.1531" cy="2939.5435" r="50.9628" gradientTransform="matrix(-1.1717 -1.1007 0.222 -0.7283 -3721.052 -531.2843)" gradientUnits="userSpaceOnUse">
			<stop  offset="0" style="stop-color:#FFFFFF"/>
			<stop  offset="1" style="stop-color:#FFFFFF;stop-opacity:0"/>
		</radialGradient>
		<path style="opacity:0.4;fill:url(#SVGID_00000152950854427572141810000017867242786412995474_);" d="M85.96,291.14
			c6.26-20.5,38.04-12.01,71.02,18.98c32.99,30.98,54.64,72.69,48.42,93.22c-6.24,20.49-38.03,12-71.02-18.98
			C101.4,353.36,79.73,311.61,85.96,291.14z"/>
	</g>
</g>
</svg>
