<?xml version="1.0" encoding="utf-8"?>
<!-- Generator: Adobe Illustrator 25.4.1, SVG Export Plug-In . SVG Version: 6.00 Build 0)  -->
<svg version="1.1" id="Layer_1" xmlns="http://www.w3.org/2000/svg" xmlns:xlink="http://www.w3.org/1999/xlink" x="0px" y="0px"
	 viewBox="0 0 500 500" style="enable-background:new 0 0 500 500;" xml:space="preserve">
<style type="text/css">
	.st0{fill:url(#SVGID_1_);}
	.st1{fill:url(#SVGID_00000013906663576073395240000007336345838295712168_);}
	.st2{fill:url(#SVGID_00000067208293235917538730000005402704264096883106_);}
	.st3{opacity:0.4;fill:url(#SVGID_00000023255705603996050460000007316339128318502549_);}
	.st4{fill:url(#SVGID_00000080899650401389081670000008803391499581755821_);}
	.st5{fill:url(#SVGID_00000070113219315235519740000001434255016576575137_);}
	.st6{fill:url(#SVGID_00000121969145702424272760000005728523721516817049_);}
	.st7{opacity:0.4;fill:url(#SVGID_00000005253495142361135390000016717656851816459914_);}
	.st8{opacity:0.2;fill:url(#SVGID_00000175323691656443814460000011222202100767266222_);}
</style>
<g>
	<g>
		<linearGradient id="SVGID_1_" gradientUnits="userSpaceOnUse" x1="487.6618" y1="58.8484" x2="241.8228" y2="333.5659">
			<stop  offset="0" style="stop-color:#FBB92C"/>
			<stop  offset="1" style="stop-color:#EA571C"/>
		</linearGradient>
		<polygon class="st0" points="469.57,288.53 438.93,290.56 433.15,320.72 403.67,312.12 387.93,338.5 363.16,320.34 339.35,339.74 
			322.29,314.21 293.28,324.29 285.98,294.46 255.27,294.01 258.61,263.48 229.91,252.56 243.49,225.02 220.25,204.94 
			242.43,183.69 227.47,156.89 255.57,144.51 250.68,114.19 281.32,112.18 287.1,82.02 316.58,90.6 332.32,64.24 357.09,82.38 
			380.9,63 397.97,88.53 426.97,78.44 434.27,108.28 464.98,108.72 461.64,139.25 490.35,150.17 476.77,177.71 500,197.8 
			477.82,219.04 492.79,245.85 464.68,258.22 		"/>
		
			<radialGradient id="SVGID_00000018211680544072247700000007798584372555844779_" cx="-58.1462" cy="136.4067" r="196.6741" gradientTransform="matrix(-1 0 0 1 325.6729 0)" gradientUnits="userSpaceOnUse">
			<stop  offset="0" style="stop-color:#FFF4C3"/>
			<stop  offset="0.1559" style="stop-color:#FFE036"/>
			<stop  offset="1" style="stop-color:#EE7525"/>
		</radialGradient>
		<circle style="fill:url(#SVGID_00000018211680544072247700000007798584372555844779_);" cx="360.13" cy="201.36" r="103.6"/>
		<g>
			
				<radialGradient id="SVGID_00000146497965319107011970000014288637681257768126_" cx="1190.8479" cy="-1707.3602" r="29.5228" gradientTransform="matrix(-0.8392 1.1536 -1.6186 -1.3126 -1363.4894 -3458.197)" gradientUnits="userSpaceOnUse">
				<stop  offset="0" style="stop-color:#FFFFFF"/>
				<stop  offset="1" style="stop-color:#FFFFFF;stop-opacity:0"/>
			</radialGradient>
			<path style="fill:url(#SVGID_00000146497965319107011970000014288637681257768126_);" d="M375.91,190.71
				c-26.39-21.41-36.69-54-23.02-72.81c13.69-18.81,46.17-16.69,72.57,4.69c26.38,21.41,36.67,54.01,23,72.81
				C434.78,214.21,402.29,212.11,375.91,190.71z"/>
			
				<radialGradient id="SVGID_00000083060231278861973480000017697692765421893771_" cx="-2828.301" cy="3194.0139" r="28.4878" gradientTransform="matrix(-1.1717 -1.1007 0.222 -0.7283 -3721.052 -531.2843)" gradientUnits="userSpaceOnUse">
				<stop  offset="0" style="stop-color:#FFFFFF"/>
				<stop  offset="1" style="stop-color:#FFFFFF;stop-opacity:0"/>
			</radialGradient>
			<path style="opacity:0.4;fill:url(#SVGID_00000083060231278861973480000017697692765421893771_);" d="M268.56,224.27
				c3.5-11.46,21.26-6.72,39.7,10.61c18.43,17.32,30.54,40.62,27.06,52.11c-3.48,11.45-21.26,6.71-39.71-10.61
				C277.19,259.05,265.07,235.71,268.56,224.27z"/>
		</g>
	</g>
	<g>
		
			<radialGradient id="SVGID_00000049915976748988729570000017824590079955952007_" cx="277.7211" cy="188.553" r="338.3364" gradientTransform="matrix(-1 0 0 -0.7305 555.4423 326.2888)" gradientUnits="userSpaceOnUse">
			<stop  offset="0" style="stop-color:#FFFFFF"/>
			<stop  offset="0.198" style="stop-color:#D6EEFB"/>
			<stop  offset="1" style="stop-color:#88BAE5"/>
		</radialGradient>
		<path style="fill:url(#SVGID_00000049915976748988729570000017824590079955952007_);" d="M351.53,243.3
			c-4.62-67.65-60.92-121.1-129.74-121.1c-68.82,0-125.12,53.45-129.74,121.1C40.79,245.84,0,288.21,0,340.09
			C0,393.61,43.39,437,96.91,437h249.76c53.52,0,96.91-43.39,96.91-96.92C443.58,288.21,402.78,245.84,351.53,243.3z"/>
		
			<radialGradient id="SVGID_00000127030717185545823470000010421493388588533637_" cx="325.6633" cy="216.9252" r="287.6234" gradientUnits="userSpaceOnUse">
			<stop  offset="0" style="stop-color:#FFE036"/>
			<stop  offset="0.1112" style="stop-color:#FBC832;stop-opacity:0.8554"/>
			<stop  offset="0.2463" style="stop-color:#F7AC2D;stop-opacity:0.6796"/>
			<stop  offset="0.3813" style="stop-color:#F39529;stop-opacity:0.504"/>
			<stop  offset="0.5144" style="stop-color:#F08427;stop-opacity:0.3309"/>
			<stop  offset="0.6447" style="stop-color:#EF7925;stop-opacity:0.1615"/>
			<stop  offset="0.7688" style="stop-color:#EE7525;stop-opacity:0"/>
		</radialGradient>
		<path style="fill:url(#SVGID_00000127030717185545823470000010421493388588533637_);" d="M351.53,243.3
			c-4.62-67.65-60.92-121.1-129.74-121.1c-68.82,0-125.12,53.45-129.74,121.1C40.79,245.84,0,288.21,0,340.09
			C0,393.61,43.39,437,96.91,437h249.76c53.52,0,96.91-43.39,96.91-96.92C443.58,288.21,402.78,245.84,351.53,243.3z"/>
		
			<radialGradient id="SVGID_00000073697000779768595930000001738128743360933514_" cx="1282.9415" cy="-1665.7522" r="40.8187" gradientTransform="matrix(-0.8392 1.1536 -1.6186 -1.3126 -1363.4894 -3458.197)" gradientUnits="userSpaceOnUse">
			<stop  offset="0" style="stop-color:#FFFFFF"/>
			<stop  offset="1" style="stop-color:#FFFFFF;stop-opacity:0"/>
		</radialGradient>
		<path style="fill:url(#SVGID_00000073697000779768595930000001738128743360933514_);" d="M221.8,255.36
			c-36.48-29.6-50.73-74.66-31.82-100.66c18.92-26.02,63.84-23.09,100.33,6.48c36.48,29.6,50.7,74.68,31.8,100.67
			C303.18,287.87,258.27,284.94,221.8,255.36z"/>
		
			<radialGradient id="SVGID_00000173880334871233486610000011781345311015545222_" cx="1281.7166" cy="-1741.1544" r="32.0792" gradientTransform="matrix(-0.8392 1.1536 -1.6186 -1.3126 -1363.4894 -3458.197)" gradientUnits="userSpaceOnUse">
			<stop  offset="0" style="stop-color:#FFFFFF"/>
			<stop  offset="1" style="stop-color:#FFFFFF;stop-opacity:0"/>
		</radialGradient>
		<path style="opacity:0.4;fill:url(#SVGID_00000173880334871233486610000011781345311015545222_);" d="M352.21,342.84
			c-28.67-23.27-39.87-58.68-25-79.12c14.87-20.44,50.17-18.13,78.85,5.11c28.66,23.25,39.85,58.68,25,79.1
			C416.17,368.38,380.87,366.08,352.21,342.84z"/>
		
			<radialGradient id="SVGID_00000112619202873397544260000018097359541379366296_" cx="52.6632" cy="370.3416" r="23.4577" gradientTransform="matrix(0.901 -0.4338 1.2628 2.6229 -462.4417 -578.1896)" gradientUnits="userSpaceOnUse">
			<stop  offset="0" style="stop-color:#FFFFFF"/>
			<stop  offset="1" style="stop-color:#FFFFFF;stop-opacity:0"/>
		</radialGradient>
		<path style="opacity:0.2;fill:url(#SVGID_00000112619202873397544260000018097359541379366296_);" d="M69.29,346.09
			c-21.16-33-45.73-48.89-54.93-35.51c-9.17,13.37,0.53,51,21.67,84.01c21.17,33,45.76,48.9,54.94,35.51
			C100.14,416.69,90.45,379.1,69.29,346.09z"/>
	</g>
</g>
</svg>
