<?xml version="1.0" encoding="utf-8"?>
<!-- Generator: Adobe Illustrator 25.4.1, SVG Export Plug-In . SVG Version: 6.00 Build 0)  -->
<svg version="1.1" id="Layer_1" xmlns="http://www.w3.org/2000/svg" xmlns:xlink="http://www.w3.org/1999/xlink" x="0px" y="0px"
	 viewBox="0 0 500 500" style="enable-background:new 0 0 500 500;" xml:space="preserve">
<style type="text/css">
	.st0{fill:url(#SVGID_1_);}
	.st1{fill:url(#SVGID_00000032615015224079249300000014570226584080966299_);}
	.st2{fill:url(#SVGID_00000100368321085013208890000011155224475868300462_);}
	.st3{opacity:0.4;fill:url(#SVGID_00000045591362219832019090000003302601324618565505_);}
	.st4{fill:url(#SVGID_00000042708955207030980140000007651500600196790187_);}
	.st5{fill:url(#SVGID_00000158745755751157406200000004420963440680191887_);}
	.st6{fill:url(#SVGID_00000004527578227069811400000013535468656212733113_);}
	.st7{opacity:0.4;fill:url(#SVGID_00000060721561211482644100000007238158483464961687_);}
	.st8{opacity:0.2;fill:url(#SVGID_00000088855830207973493690000007173206935716415915_);}
	.st9{fill:url(#SVGID_00000109744376563653855410000014906493170077677708_);}
	.st10{fill:url(#SVGID_00000145770731144495084840000014030371819937779611_);}
	.st11{fill:url(#SVGID_00000029760426389645973230000012872309789149615771_);}
	.st12{fill:url(#SVGID_00000009584768446518328010000018309534663970202533_);}
	.st13{fill:url(#SVGID_00000133500579009592128460000004138873325588072106_);}
	.st14{fill:url(#SVGID_00000164490469309969823720000015590081444307750077_);}
	.st15{fill:url(#SVGID_00000170254393453390011290000012850670754430559418_);}
	.st16{fill:url(#SVGID_00000124856243041491666060000010165872648706597544_);}
</style>
<g>
	<g>
		<linearGradient id="SVGID_1_" gradientUnits="userSpaceOnUse" x1="484.691" y1="27.3421" x2="220.0813" y2="323.0354">
			<stop  offset="0" style="stop-color:#FBB92C"/>
			<stop  offset="1" style="stop-color:#EA571C"/>
		</linearGradient>
		<polygon class="st0" points="465.22,274.57 432.24,276.74 426.02,309.2 394.29,299.96 377.35,328.34 350.68,308.8 325.06,329.67 
			306.69,302.2 275.47,313.04 267.61,280.95 234.56,280.46 238.15,247.6 207.26,235.85 221.87,206.2 196.87,184.58 220.74,161.72 
			204.63,132.86 234.88,119.54 229.61,86.91 262.6,84.75 268.81,52.28 300.55,61.52 317.49,33.14 344.15,52.68 369.78,31.81 
			388.15,59.28 419.37,48.44 427.23,80.54 460.28,81.02 456.69,113.88 487.58,125.64 472.97,155.28 497.97,176.9 474.1,199.76 
			490.21,228.62 459.95,241.94 		"/>
		
			<radialGradient id="SVGID_00000168826830821242520910000006967655218053191088_" cx="-47.2501" cy="110.8244" r="211.6902" gradientTransform="matrix(-1 0 0 1 325.6729 0)" gradientUnits="userSpaceOnUse">
			<stop  offset="0" style="stop-color:#FFF4C3"/>
			<stop  offset="0.1559" style="stop-color:#FFE036"/>
			<stop  offset="1" style="stop-color:#EE7525"/>
		</radialGradient>
		<path style="fill:url(#SVGID_00000168826830821242520910000006967655218053191088_);" d="M235.91,180.74
			c0,61.59,49.92,111.52,111.51,111.52c61.59,0,111.51-49.92,111.51-111.52c0-61.57-49.93-111.51-111.51-111.51
			C285.83,69.23,235.91,119.16,235.91,180.74z"/>
		<g>
			
				<radialGradient id="SVGID_00000155135337868381282810000009107953526172038022_" cx="1181.9911" cy="-1696.8319" r="31.7755" gradientTransform="matrix(-0.8392 1.1536 -1.6186 -1.3126 -1363.4894 -3458.197)" gradientUnits="userSpaceOnUse">
				<stop  offset="0" style="stop-color:#FFFFFF"/>
				<stop  offset="1" style="stop-color:#FFFFFF;stop-opacity:0"/>
			</radialGradient>
			<path style="fill:url(#SVGID_00000155135337868381282810000009107953526172038022_);" d="M364.41,169.27
				c-28.4-23.04-39.49-58.12-24.77-78.36c14.73-20.25,49.7-17.97,78.11,5.05c28.39,23.04,39.47,58.13,24.76,78.36
				C427.77,194.58,392.8,192.3,364.41,169.27z"/>
			
				<radialGradient id="SVGID_00000153687118525240238650000003661635721853758910_" cx="-2813.5879" cy="3194.4177" r="30.6622" gradientTransform="matrix(-1.1717 -1.1007 0.222 -0.7283 -3721.052 -531.2843)" gradientUnits="userSpaceOnUse">
				<stop  offset="0" style="stop-color:#FFFFFF"/>
				<stop  offset="1" style="stop-color:#FFFFFF;stop-opacity:0"/>
			</radialGradient>
			<path style="opacity:0.4;fill:url(#SVGID_00000153687118525240238650000003661635721853758910_);" d="M248.86,205.39
				c3.77-12.33,22.89-7.23,42.74,11.42c19.84,18.64,32.87,43.74,29.13,56.08c-3.75,12.33-22.88,7.23-42.73-11.42
				C258.15,242.83,245.11,217.7,248.86,205.39z"/>
		</g>
	</g>
	<g>
		
			<radialGradient id="SVGID_00000047780413143408092110000011315042319174917526_" cx="269.7523" cy="161.7313" r="326.1616" gradientTransform="matrix(-1 0 0 -0.7305 539.5046 279.874)" gradientUnits="userSpaceOnUse">
			<stop  offset="0" style="stop-color:#FFFFFF"/>
			<stop  offset="0.198" style="stop-color:#D6EEFB"/>
			<stop  offset="1" style="stop-color:#88BAE5"/>
		</radialGradient>
		<path style="fill:url(#SVGID_00000047780413143408092110000011315042319174917526_);" d="M340.9,214.51
			c-4.45-65.21-58.73-116.74-125.07-116.74c-66.34,0-120.62,51.53-125.07,116.74c-49.42,2.45-88.74,43.28-88.74,93.3
			c0,51.6,41.82,93.43,93.42,93.43h240.77c51.59,0,93.42-41.83,93.42-93.43C429.64,257.79,390.32,216.96,340.9,214.51z"/>
		
			<radialGradient id="SVGID_00000027576062001419089160000010307095912322945413_" cx="311.7498" cy="180.2741" r="286.451" gradientUnits="userSpaceOnUse">
			<stop  offset="0" style="stop-color:#FFE036"/>
			<stop  offset="0.1112" style="stop-color:#FBC832;stop-opacity:0.8554"/>
			<stop  offset="0.2463" style="stop-color:#F7AC2D;stop-opacity:0.6796"/>
			<stop  offset="0.3813" style="stop-color:#F39529;stop-opacity:0.504"/>
			<stop  offset="0.5144" style="stop-color:#F08427;stop-opacity:0.3309"/>
			<stop  offset="0.6447" style="stop-color:#EF7925;stop-opacity:0.1615"/>
			<stop  offset="0.7688" style="stop-color:#EE7525;stop-opacity:0"/>
		</radialGradient>
		<path style="fill:url(#SVGID_00000027576062001419089160000010307095912322945413_);" d="M340.9,214.51
			c-4.45-65.21-58.73-116.74-125.07-116.74c-66.34,0-120.62,51.53-125.07,116.74c-49.42,2.45-88.74,43.28-88.74,93.3
			c0,51.6,41.82,93.43,93.42,93.43h240.77c51.59,0,93.42-41.83,93.42-93.43C429.64,257.79,390.32,216.96,340.9,214.51z"/>
		
			<radialGradient id="SVGID_00000018225644665711539710000012704745380362448010_" cx="1271.1097" cy="-1655.1748" r="39.3509" gradientTransform="matrix(-0.8392 1.1536 -1.6186 -1.3126 -1363.4894 -3458.197)" gradientUnits="userSpaceOnUse">
			<stop  offset="0" style="stop-color:#FFFFFF"/>
			<stop  offset="1" style="stop-color:#FFFFFF;stop-opacity:0"/>
		</radialGradient>
		<path style="fill:url(#SVGID_00000018225644665711539710000012704745380362448010_);" d="M215.84,226.14
			c-35.17-28.53-48.9-71.98-30.67-97.05c18.24-25.07,61.54-22.25,96.72,6.26c35.16,28.53,48.88,71.98,30.66,97.05
			C294.3,257.47,251,254.65,215.84,226.14z"/>
		
			<radialGradient id="SVGID_00000138531705267137468510000011773845711048395411_" cx="1269.9242" cy="-1727.8649" r="30.9252" gradientTransform="matrix(-0.8392 1.1536 -1.6186 -1.3126 -1363.4894 -3458.197)" gradientUnits="userSpaceOnUse">
			<stop  offset="0" style="stop-color:#FFFFFF"/>
			<stop  offset="1" style="stop-color:#FFFFFF;stop-opacity:0"/>
		</radialGradient>
		<path style="opacity:0.4;fill:url(#SVGID_00000138531705267137468510000011773845711048395411_);" d="M341.56,310.46
			c-27.64-22.42-38.44-56.56-24.11-76.26c14.34-19.7,48.37-17.48,76.02,4.91c27.63,22.42,38.42,56.58,24.1,76.26
			C403.22,335.09,369.19,332.87,341.56,310.46z"/>
		
			<radialGradient id="SVGID_00000127041223660783507970000013113223084565489545_" cx="52.7909" cy="336.9767" r="22.6132" gradientTransform="matrix(0.901 -0.4338 1.2628 2.6229 -420.297 -523.9857)" gradientUnits="userSpaceOnUse">
			<stop  offset="0" style="stop-color:#FFFFFF"/>
			<stop  offset="1" style="stop-color:#FFFFFF;stop-opacity:0"/>
		</radialGradient>
		<path style="opacity:0.2;fill:url(#SVGID_00000127041223660783507970000013113223084565489545_);" d="M68.82,313.6
			c-20.39-31.82-44.08-47.13-52.96-34.23c-8.84,12.88,0.51,49.15,20.89,80.98c20.41,31.82,44.11,47.14,52.96,34.24
			C98.56,381.65,89.22,345.42,68.82,313.6z"/>
	</g>
	<g>
		<g>
			
				<radialGradient id="SVGID_00000070119031607317772700000018188689961210484399_" cx="-84.0858" cy="418.0604" r="45.9173" gradientTransform="matrix(0.866 0.5 -0.5 0.866 367.8088 134.3015)" gradientUnits="userSpaceOnUse">
				<stop  offset="0" style="stop-color:#D1ECFA"/>
				<stop  offset="0.198" style="stop-color:#D6EEFB"/>
				<stop  offset="1" style="stop-color:#88BAE5"/>
			</radialGradient>
			<path style="fill:url(#SVGID_00000070119031607317772700000018188689961210484399_);" d="M111.51,458.65
				c-5.27,9.13-16.94,12.26-26.07,6.98c-9.13-5.27-12.25-16.94-6.98-26.07c5.27-9.13,37.86-27.42,37.86-27.42
				S116.78,449.51,111.51,458.65z"/>
			
				<radialGradient id="SVGID_00000125601592988913780780000006349434461191288255_" cx="1545.4958" cy="-1591.9807" r="7.1931" gradientTransform="matrix(-1.3036 0.5794 -0.7454 -1.946 916.4301 -3542.1443)" gradientUnits="userSpaceOnUse">
				<stop  offset="0" style="stop-color:#FFFFFF"/>
				<stop  offset="1" style="stop-color:#FFFFFF;stop-opacity:0"/>
			</radialGradient>
			<path style="fill:url(#SVGID_00000125601592988913780780000006349434461191288255_);" d="M79.01,455.48
				c-2.96-7.73-1.17-15.86,4.02-18.17c5.18-2.3,11.77,2.1,14.74,9.84c2.96,7.72,1.16,15.87-4.02,18.16
				C88.57,467.61,81.97,463.21,79.01,455.48z"/>
		</g>
		<g>
			
				<radialGradient id="SVGID_00000124136376069387626560000010650139296750646718_" cx="-14.9633" cy="378.1505" r="45.9193" gradientTransform="matrix(0.866 0.5 -0.5 0.866 367.8088 134.3015)" gradientUnits="userSpaceOnUse">
				<stop  offset="0" style="stop-color:#D1ECFA"/>
				<stop  offset="0.198" style="stop-color:#D6EEFB"/>
				<stop  offset="1" style="stop-color:#88BAE5"/>
			</radialGradient>
			<path style="fill:url(#SVGID_00000124136376069387626560000010650139296750646718_);" d="M191.32,458.65
				c-5.27,9.13-16.94,12.26-26.07,6.98c-9.13-5.27-12.26-16.94-6.99-26.07c5.27-9.13,37.87-27.42,37.87-27.42
				S196.59,449.51,191.32,458.65z"/>
			
				<radialGradient id="SVGID_00000038407379012658376350000009330611700459401367_" cx="1493.1774" cy="-1607.5582" r="7.1932" gradientTransform="matrix(-1.3036 0.5794 -0.7454 -1.946 916.4301 -3542.1443)" gradientUnits="userSpaceOnUse">
				<stop  offset="0" style="stop-color:#FFFFFF"/>
				<stop  offset="1" style="stop-color:#FFFFFF;stop-opacity:0"/>
			</radialGradient>
			<path style="fill:url(#SVGID_00000038407379012658376350000009330611700459401367_);" d="M158.82,455.48
				c-2.96-7.73-1.16-15.86,4.02-18.17c5.18-2.3,11.78,2.1,14.74,9.84c2.96,7.72,1.16,15.87-4.01,18.16
				C168.38,467.61,161.78,463.21,158.82,455.48z"/>
		</g>
		<g>
			
				<radialGradient id="SVGID_00000160890298698908784010000014703595144281738913_" cx="54.1614" cy="338.2409" r="45.9173" gradientTransform="matrix(0.866 0.5 -0.5 0.866 367.8088 134.3015)" gradientUnits="userSpaceOnUse">
				<stop  offset="0" style="stop-color:#D1ECFA"/>
				<stop  offset="0.198" style="stop-color:#D6EEFB"/>
				<stop  offset="1" style="stop-color:#88BAE5"/>
			</radialGradient>
			<path style="fill:url(#SVGID_00000160890298698908784010000014703595144281738913_);" d="M271.14,458.65
				c-5.27,9.13-16.94,12.26-26.07,6.98c-9.13-5.27-12.25-16.94-6.98-26.07c5.27-9.13,37.86-27.42,37.86-27.42
				S276.41,449.51,271.14,458.65z"/>
			
				<radialGradient id="SVGID_00000029043482035935593860000007279900242513226679_" cx="1440.8558" cy="-1623.1364" r="7.1932" gradientTransform="matrix(-1.3036 0.5794 -0.7454 -1.946 916.4301 -3542.1443)" gradientUnits="userSpaceOnUse">
				<stop  offset="0" style="stop-color:#FFFFFF"/>
				<stop  offset="1" style="stop-color:#FFFFFF;stop-opacity:0"/>
			</radialGradient>
			<path style="fill:url(#SVGID_00000029043482035935593860000007279900242513226679_);" d="M238.64,455.48
				c-2.96-7.73-1.17-15.86,4.02-18.17c5.18-2.3,11.78,2.1,14.74,9.84c2.96,7.72,1.16,15.87-4.01,18.16
				C248.2,467.61,241.6,463.21,238.64,455.48z"/>
		</g>
		<g>
			
				<radialGradient id="SVGID_00000147907212774232097340000001330549308831167150_" cx="123.2853" cy="298.3311" r="45.9173" gradientTransform="matrix(0.866 0.5 -0.5 0.866 367.8088 134.3015)" gradientUnits="userSpaceOnUse">
				<stop  offset="0" style="stop-color:#D1ECFA"/>
				<stop  offset="0.198" style="stop-color:#D6EEFB"/>
				<stop  offset="1" style="stop-color:#88BAE5"/>
			</radialGradient>
			<path style="fill:url(#SVGID_00000147907212774232097340000001330549308831167150_);" d="M350.96,458.65
				c-5.27,9.13-16.94,12.26-26.07,6.98c-9.13-5.27-12.25-16.94-6.98-26.07c5.27-9.13,37.86-27.42,37.86-27.42
				S356.23,449.51,350.96,458.65z"/>
			
				<radialGradient id="SVGID_00000091698395887228995850000001470268331898840490_" cx="1388.5366" cy="-1638.7139" r="7.1935" gradientTransform="matrix(-1.3036 0.5794 -0.7454 -1.946 916.4301 -3542.1443)" gradientUnits="userSpaceOnUse">
				<stop  offset="0" style="stop-color:#FFFFFF"/>
				<stop  offset="1" style="stop-color:#FFFFFF;stop-opacity:0"/>
			</radialGradient>
			<path style="fill:url(#SVGID_00000091698395887228995850000001470268331898840490_);" d="M318.45,455.48
				c-2.96-7.73-1.16-15.86,4.02-18.17c5.18-2.3,11.77,2.1,14.74,9.84c2.96,7.72,1.16,15.87-4.02,18.16
				C328.01,467.61,321.42,463.21,318.45,455.48z"/>
		</g>
	</g>
</g>
</svg>
