<?xml version="1.0" encoding="utf-8"?>
<!-- Generator: Adobe Illustrator 25.4.1, SVG Export Plug-In . SVG Version: 6.00 Build 0)  -->
<svg version="1.1" id="Layer_1" xmlns="http://www.w3.org/2000/svg" xmlns:xlink="http://www.w3.org/1999/xlink" x="0px" y="0px"
	 viewBox="0 0 500 500" style="enable-background:new 0 0 500 500;" xml:space="preserve">
<style type="text/css">
	.st0{fill:url(#SVGID_1_);}
	.st1{fill:url(#SVGID_00000120521210885150897480000006364148833368939179_);}
	.st2{opacity:0.4;fill:url(#SVGID_00000168099340068105639910000017079961969865537466_);}
	.st3{opacity:0.2;fill:url(#SVGID_00000041260662555854877930000013725949493709854138_);}
	.st4{fill:url(#SVGID_00000091701403045340211400000008502715044757552279_);}
	.st5{fill:url(#SVGID_00000092432218346025436040000006693850788537691821_);}
	.st6{fill:url(#SVGID_00000085248006952312438020000005636888896317067966_);}
	.st7{fill:url(#SVGID_00000000224228415316216070000018034132657688480938_);}
	.st8{fill:url(#SVGID_00000176738569860142480830000008744595324844417467_);}
	.st9{fill:url(#SVGID_00000152958571594300261560000011971062358942128815_);}
	.st10{fill:url(#SVGID_00000022550376111134096190000015517270867962956713_);}
	.st11{fill:url(#SVGID_00000118372126740121543020000004952561177286298262_);}
	.st12{fill:url(#SVGID_00000176730062623217243590000003996209285156949157_);}
	.st13{fill:url(#SVGID_00000117656705895065973800000016069044874069162170_);}
	.st14{fill:url(#SVGID_00000082346453805647938040000009179637715859851940_);}
	.st15{fill:url(#SVGID_00000174575762534337659750000014645306476482051477_);}
	.st16{fill:url(#SVGID_00000176043806178102431940000014325995386281994653_);}
	.st17{fill:url(#SVGID_00000173125183773097817280000016689840142955382191_);}
</style>
<g>
	<g>
		
			<radialGradient id="SVGID_1_" cx="311.626" cy="73.0986" r="372.77" gradientTransform="matrix(-1 0 0 -0.7305 623.252 126.4963)" gradientUnits="userSpaceOnUse">
			<stop  offset="0" style="stop-color:#FFFFFF"/>
			<stop  offset="0.198" style="stop-color:#D6EEFB"/>
			<stop  offset="1" style="stop-color:#88BAE5"/>
		</radialGradient>
		<path class="st0" d="M392.94,133.42C387.85,58.89,325.82,0,250,0c-75.82,0-137.85,58.89-142.94,133.42
			C50.58,136.21,5.64,182.89,5.64,240.06c0,58.97,47.8,106.77,106.77,106.77h275.18c58.97,0,106.77-47.81,106.77-106.77
			C494.36,182.89,449.42,136.21,392.94,133.42z"/>
		
			<radialGradient id="SVGID_00000141430122772702435630000006172510179283590310_" cx="1207.0704" cy="-1645.9984" r="44.9729" gradientTransform="matrix(-0.8392 1.1536 -1.6186 -1.3126 -1363.4894 -3458.197)" gradientUnits="userSpaceOnUse">
			<stop  offset="0" style="stop-color:#FFFFFF"/>
			<stop  offset="1" style="stop-color:#FFFFFF;stop-opacity:0"/>
		</radialGradient>
		<path style="fill:url(#SVGID_00000141430122772702435630000006172510179283590310_);" d="M250.01,146.7
			c-40.19-32.61-55.9-82.25-35.06-110.91c20.85-28.65,70.34-25.43,110.55,7.15c40.18,32.6,55.87,82.27,35.04,110.91
			C339.68,182.51,290.2,179.29,250.01,146.7z"/>
		
			<radialGradient id="SVGID_00000137102501697091163850000003348228008181339570_" cx="1205.7186" cy="-1729.0792" r="35.3455" gradientTransform="matrix(-0.8392 1.1536 -1.6186 -1.3126 -1363.4894 -3458.197)" gradientUnits="userSpaceOnUse">
			<stop  offset="0" style="stop-color:#FFFFFF"/>
			<stop  offset="1" style="stop-color:#FFFFFF;stop-opacity:0"/>
		</radialGradient>
		<path style="opacity:0.4;fill:url(#SVGID_00000137102501697091163850000003348228008181339570_);" d="M393.7,243.09
			c-31.59-25.63-43.93-64.66-27.56-87.16c16.39-22.53,55.28-19.99,86.88,5.62c31.58,25.63,43.9,64.67,27.54,87.16
			C464.17,271.23,425.28,268.7,393.7,243.09z"/>
		
			<radialGradient id="SVGID_00000073679366844456467180000017307332646398008961_" cx="63.6562" cy="273.3899" r="25.8447" gradientTransform="matrix(0.901 -0.4338 1.2628 2.6229 -338.9263 -416.0764)" gradientUnits="userSpaceOnUse">
			<stop  offset="0" style="stop-color:#FFFFFF"/>
			<stop  offset="1" style="stop-color:#FFFFFF;stop-opacity:0"/>
		</radialGradient>
		<path style="opacity:0.2;fill:url(#SVGID_00000073679366844456467180000017307332646398008961_);" d="M81.98,246.66
			c-23.31-36.36-50.38-53.86-60.53-39.11c-10.1,14.73,0.58,56.18,23.88,92.55c23.32,36.36,50.41,53.88,60.53,39.12
			C115.97,324.45,105.29,283.05,81.98,246.66z"/>
	</g>
	<g>
		<g>
			
				<radialGradient id="SVGID_00000010306369983396963290000014582839339854558357_" cx="-93.9797" cy="369.7122" r="52.48" gradientTransform="matrix(0.866 0.5 -0.5 0.866 367.8088 134.3015)" gradientUnits="userSpaceOnUse">
				<stop  offset="0" style="stop-color:#D1ECFA"/>
				<stop  offset="0.198" style="stop-color:#D6EEFB"/>
				<stop  offset="1" style="stop-color:#88BAE5"/>
			</radialGradient>
			<path style="fill:url(#SVGID_00000010306369983396963290000014582839339854558357_);" d="M130.77,412.45
				c-6.02,10.44-19.36,14-29.8,7.98c-10.43-6.02-14.01-19.36-7.98-29.79c6.02-10.44,43.28-31.34,43.28-31.34
				S136.79,402.01,130.77,412.45z"/>
			
				<radialGradient id="SVGID_00000093163145607866940040000015563804704150889870_" cx="1523.1747" cy="-1574.3468" r="8.2201" gradientTransform="matrix(-1.3036 0.5794 -0.7454 -1.946 916.4301 -3542.1443)" gradientUnits="userSpaceOnUse">
				<stop  offset="0" style="stop-color:#FFFFFF"/>
				<stop  offset="1" style="stop-color:#FFFFFF;stop-opacity:0"/>
			</radialGradient>
			<path style="fill:url(#SVGID_00000093163145607866940040000015563804704150889870_);" d="M93.62,408.82
				c-3.38-8.83-1.33-18.13,4.59-20.76c5.92-2.63,13.46,2.39,16.84,11.23c3.39,8.84,1.33,18.14-4.59,20.76
				C104.54,422.69,97,417.66,93.62,408.82z"/>
		</g>
		<g>
			
				<radialGradient id="SVGID_00000064347408096456797530000003614368427225132434_" cx="-14.9769" cy="324.0996" r="52.48" gradientTransform="matrix(0.866 0.5 -0.5 0.866 367.8088 134.3015)" gradientUnits="userSpaceOnUse">
				<stop  offset="0" style="stop-color:#D1ECFA"/>
				<stop  offset="0.198" style="stop-color:#D6EEFB"/>
				<stop  offset="1" style="stop-color:#88BAE5"/>
			</radialGradient>
			<path style="fill:url(#SVGID_00000064347408096456797530000003614368427225132434_);" d="M221.99,412.45
				c-6.02,10.44-19.36,14-29.8,7.98c-10.43-6.02-14.01-19.36-7.98-29.79c6.02-10.44,43.28-31.34,43.28-31.34
				S228.01,402.01,221.99,412.45z"/>
			
				<radialGradient id="SVGID_00000083803709324075767510000005564550218611201955_" cx="1463.3767" cy="-1592.1508" r="8.22" gradientTransform="matrix(-1.3036 0.5794 -0.7454 -1.946 916.4301 -3542.1443)" gradientUnits="userSpaceOnUse">
				<stop  offset="0" style="stop-color:#FFFFFF"/>
				<stop  offset="1" style="stop-color:#FFFFFF;stop-opacity:0"/>
			</radialGradient>
			<path style="fill:url(#SVGID_00000083803709324075767510000005564550218611201955_);" d="M184.84,408.82
				c-3.38-8.83-1.33-18.13,4.59-20.76c5.92-2.63,13.46,2.39,16.84,11.23c3.38,8.84,1.32,18.14-4.59,20.76
				C195.77,422.69,188.23,417.66,184.84,408.82z"/>
		</g>
		<g>
			
				<radialGradient id="SVGID_00000056414621841930082940000011776949912441947306_" cx="64.0273" cy="278.4844" r="52.4823" gradientTransform="matrix(0.866 0.5 -0.5 0.866 367.8088 134.3015)" gradientUnits="userSpaceOnUse">
				<stop  offset="0" style="stop-color:#D1ECFA"/>
				<stop  offset="0.198" style="stop-color:#D6EEFB"/>
				<stop  offset="1" style="stop-color:#88BAE5"/>
			</radialGradient>
			<path style="fill:url(#SVGID_00000056414621841930082940000011776949912441947306_);" d="M313.21,412.45
				c-6.02,10.44-19.36,14-29.8,7.98c-10.43-6.02-14.01-19.36-7.98-29.79c6.02-10.44,43.28-31.34,43.28-31.34
				S319.24,402.01,313.21,412.45z"/>
			
				<radialGradient id="SVGID_00000165211286563481680590000003200351509132124089_" cx="1403.579" cy="-1609.9551" r="8.2202" gradientTransform="matrix(-1.3036 0.5794 -0.7454 -1.946 916.4301 -3542.1443)" gradientUnits="userSpaceOnUse">
				<stop  offset="0" style="stop-color:#FFFFFF"/>
				<stop  offset="1" style="stop-color:#FFFFFF;stop-opacity:0"/>
			</radialGradient>
			<path style="fill:url(#SVGID_00000165211286563481680590000003200351509132124089_);" d="M276.07,408.82
				c-3.38-8.83-1.33-18.13,4.59-20.76c5.92-2.63,13.46,2.39,16.84,11.23c3.39,8.84,1.33,18.14-4.59,20.76
				C286.99,422.69,279.45,417.66,276.07,408.82z"/>
		</g>
		<g>
			
				<radialGradient id="SVGID_00000104688756305274996650000010910492462650374051_" cx="143.0297" cy="232.8716" r="52.4801" gradientTransform="matrix(0.866 0.5 -0.5 0.866 367.8088 134.3015)" gradientUnits="userSpaceOnUse">
				<stop  offset="0" style="stop-color:#D1ECFA"/>
				<stop  offset="0.198" style="stop-color:#D6EEFB"/>
				<stop  offset="1" style="stop-color:#88BAE5"/>
			</radialGradient>
			<path style="fill:url(#SVGID_00000104688756305274996650000010910492462650374051_);" d="M404.44,412.45
				c-6.02,10.44-19.36,14-29.8,7.98c-10.43-6.02-14.01-19.36-7.98-29.79c6.02-10.44,43.28-31.34,43.28-31.34
				S410.46,402.01,404.44,412.45z"/>
			
				<radialGradient id="SVGID_00000085929267271824202210000015345211743450233253_" cx="1343.7812" cy="-1627.7589" r="8.22" gradientTransform="matrix(-1.3036 0.5794 -0.7454 -1.946 916.4301 -3542.1443)" gradientUnits="userSpaceOnUse">
				<stop  offset="0" style="stop-color:#FFFFFF"/>
				<stop  offset="1" style="stop-color:#FFFFFF;stop-opacity:0"/>
			</radialGradient>
			<path style="fill:url(#SVGID_00000085929267271824202210000015345211743450233253_);" d="M367.29,408.82
				c-3.38-8.83-1.33-18.13,4.59-20.76c5.92-2.63,13.46,2.39,16.84,11.23c3.38,8.84,1.33,18.14-4.59,20.76
				C378.21,422.69,370.67,417.66,367.29,408.82z"/>
		</g>
	</g>
	<g>
		<g>
			
				<radialGradient id="SVGID_00000119799172538063132970000013437629329420871825_" cx="-16.1529" cy="413.2837" r="52.4803" gradientTransform="matrix(0.866 0.5 -0.5 0.866 367.8088 134.3015)" gradientUnits="userSpaceOnUse">
				<stop  offset="0" style="stop-color:#D1ECFA"/>
				<stop  offset="0.198" style="stop-color:#D6EEFB"/>
				<stop  offset="1" style="stop-color:#88BAE5"/>
			</radialGradient>
			<path style="fill:url(#SVGID_00000119799172538063132970000013437629329420871825_);" d="M176.38,489.1
				c-6.02,10.43-19.36,14-29.8,7.98c-10.43-6.02-14.01-19.37-7.98-29.79c6.02-10.44,43.28-31.34,43.28-31.34
				S182.4,478.66,176.38,489.1z"/>
			
				<radialGradient id="SVGID_00000144331429760552982720000017882658432140839044_" cx="1512.5212" cy="-1616.9054" r="8.22" gradientTransform="matrix(-1.3036 0.5794 -0.7454 -1.946 916.4301 -3542.1443)" gradientUnits="userSpaceOnUse">
				<stop  offset="0" style="stop-color:#FFFFFF"/>
				<stop  offset="1" style="stop-color:#FFFFFF;stop-opacity:0"/>
			</radialGradient>
			<path style="fill:url(#SVGID_00000144331429760552982720000017882658432140839044_);" d="M139.23,485.47
				c-3.38-8.83-1.33-18.13,4.59-20.76c5.91-2.63,13.46,2.39,16.84,11.23c3.39,8.83,1.33,18.14-4.59,20.76
				C150.15,499.33,142.62,494.3,139.23,485.47z"/>
		</g>
		<g>
			
				<radialGradient id="SVGID_00000072261590795835286150000006774089345538630272_" cx="62.8504" cy="367.6696" r="52.4804" gradientTransform="matrix(0.866 0.5 -0.5 0.866 367.8088 134.3015)" gradientUnits="userSpaceOnUse">
				<stop  offset="0" style="stop-color:#D1ECFA"/>
				<stop  offset="0.198" style="stop-color:#D6EEFB"/>
				<stop  offset="1" style="stop-color:#88BAE5"/>
			</radialGradient>
			<path style="fill:url(#SVGID_00000072261590795835286150000006774089345538630272_);" d="M267.6,489.1
				c-6.02,10.43-19.36,14-29.8,7.98c-10.43-6.02-14.01-19.37-7.98-29.79c6.02-10.44,43.28-31.34,43.28-31.34
				S273.63,478.66,267.6,489.1z"/>
			
				<radialGradient id="SVGID_00000155857834556923587140000016144222097873336960_" cx="1452.7217" cy="-1634.7097" r="8.2202" gradientTransform="matrix(-1.3036 0.5794 -0.7454 -1.946 916.4301 -3542.1443)" gradientUnits="userSpaceOnUse">
				<stop  offset="0" style="stop-color:#FFFFFF"/>
				<stop  offset="1" style="stop-color:#FFFFFF;stop-opacity:0"/>
			</radialGradient>
			<path style="fill:url(#SVGID_00000155857834556923587140000016144222097873336960_);" d="M230.46,485.47
				c-3.38-8.83-1.33-18.13,4.59-20.76c5.92-2.63,13.46,2.39,16.84,11.23c3.38,8.83,1.33,18.14-4.59,20.76
				C241.38,499.33,233.84,494.3,230.46,485.47z"/>
		</g>
		<g>
			
				<radialGradient id="SVGID_00000088101219382115844900000016440003853058321312_" cx="141.8537" cy="322.0559" r="52.4802" gradientTransform="matrix(0.866 0.5 -0.5 0.866 367.8088 134.3015)" gradientUnits="userSpaceOnUse">
				<stop  offset="0" style="stop-color:#D1ECFA"/>
				<stop  offset="0.198" style="stop-color:#D6EEFB"/>
				<stop  offset="1" style="stop-color:#88BAE5"/>
			</radialGradient>
			<path style="fill:url(#SVGID_00000088101219382115844900000016440003853058321312_);" d="M358.83,489.1
				c-6.02,10.43-19.36,14-29.8,7.98c-10.43-6.02-14.01-19.37-7.98-29.79c6.02-10.44,43.28-31.34,43.28-31.34
				S364.85,478.66,358.83,489.1z"/>
			
				<radialGradient id="SVGID_00000067197680006953334830000003713046244833588415_" cx="1392.9247" cy="-1652.5135" r="8.2205" gradientTransform="matrix(-1.3036 0.5794 -0.7454 -1.946 916.4301 -3542.1443)" gradientUnits="userSpaceOnUse">
				<stop  offset="0" style="stop-color:#FFFFFF"/>
				<stop  offset="1" style="stop-color:#FFFFFF;stop-opacity:0"/>
			</radialGradient>
			<path style="fill:url(#SVGID_00000067197680006953334830000003713046244833588415_);" d="M321.68,485.47
				c-3.38-8.83-1.33-18.13,4.59-20.76c5.92-2.63,13.46,2.39,16.84,11.23c3.38,8.83,1.32,18.14-4.59,20.76
				C332.6,499.33,325.06,494.3,321.68,485.47z"/>
		</g>
	</g>
</g>
</svg>
