<?xml version="1.0" encoding="utf-8"?>
<!-- Generator: Adobe Illustrator 25.4.1, SVG Export Plug-In . SVG Version: 6.00 Build 0)  -->
<svg version="1.1" id="Layer_1" xmlns="http://www.w3.org/2000/svg" xmlns:xlink="http://www.w3.org/1999/xlink" x="0px" y="0px"
	 viewBox="0 0 500 500" style="enable-background:new 0 0 500 500;" xml:space="preserve">
<style type="text/css">
	.st0{fill:url(#SVGID_1_);}
</style>
<radialGradient id="SVGID_1_" cx="390.4461" cy="152.3112" r="417.6198" gradientUnits="userSpaceOnUse">
	<stop  offset="0" style="stop-color:#45BEDF"/>
	<stop  offset="1" style="stop-color:#2753A1"/>
</radialGradient>
<path class="st0" d="M453.63,341.02l-44.79-25.85l13.86-7.99c11-6.34,14.78-20.41,8.43-31.4c-6.35-10.99-20.42-14.76-31.4-8.42
	l-36.86,21.26l-34.02-19.63c1.47-6.11,2.33-12.43,2.33-18.98c0-6.55-0.87-12.88-2.33-18.98l34.02-19.65l36.85,21.27
	c3.62,2.1,7.57,3.1,11.46,3.1c7.95,0,15.67-4.13,19.93-11.51c6.35-10.99,2.58-25.05-8.41-31.4l-13.87-8.01l44.8-25.85
	c10.99-6.35,14.76-20.41,8.42-31.4c-6.35-11-20.38-14.78-31.4-8.41l-44.8,25.85l0.02-16c0-12.71-10.3-22.99-22.99-22.99l0,0
	c-12.69,0-22.99,10.28-22.99,22.98l-0.01,42.54l-34.05,19.66c-9.18-8.72-20.37-15.34-32.84-19.02v-39.25l36.86-21.29
	c11-6.34,14.75-20.4,8.4-31.39c-6.35-11-20.41-14.78-31.4-8.42l-13.86,8.01V28.13c0-12.69-10.29-22.98-22.98-22.98
	c-12.71,0-22.99,10.28-22.99,22.98v51.71l-13.87-8.01c-10.99-6.35-25.04-2.58-31.4,8.42c-6.35,10.99-2.57,25.05,8.41,31.39
	l36.86,21.29v39.25c-12.47,3.68-23.66,10.3-32.85,19.03l-34.05-19.67V129c0-12.69-10.3-22.98-22.99-22.98
	c-12.71,0-22.98,10.28-22.98,22.98v16.01l-44.78-25.85c-11-6.37-25.05-2.59-31.4,8.41c-6.35,10.99-2.59,25.05,8.41,31.4l44.78,25.85
	l-13.88,7.99c-10.98,6.34-14.76,20.41-8.41,31.41c4.25,7.37,11.99,11.5,19.94,11.5c3.89,0,7.84-0.99,11.46-3.09l36.86-21.27
	l34.04,19.65c-1.48,6.11-2.34,12.43-2.34,18.98c0,6.55,0.85,12.87,2.34,18.98l-34.04,19.63l-36.84-21.27
	c-11-6.37-25.05-2.58-31.4,8.41c-6.37,10.99-2.59,25.06,8.41,31.4l13.87,8.01l-44.8,25.87c-11,6.34-14.76,20.4-8.41,31.4
	c4.25,7.38,11.98,11.5,19.92,11.5c3.91,0,7.86-0.99,11.48-3.09l44.76-25.85v16c0,12.69,10.3,22.99,22.98,22.99
	c12.69,0,23-10.28,23-22.99l0.01-42.54l34.05-19.67c9.18,8.74,20.38,15.35,32.83,19.03v39.26l-36.85,21.27
	c-11,6.34-14.77,20.4-8.41,31.4c6.35,11,20.4,14.78,31.4,8.41l13.87-8.01v51.72c0,12.69,10.3,22.99,22.99,22.99
	c12.69,0,22.98-10.3,22.98-22.99v-51.71l13.85,8.01c3.62,2.1,7.57,3.09,11.48,3.09c7.93,0,15.67-4.11,19.92-11.5
	c6.36-10.99,2.59-25.05-8.39-31.4l-36.86-21.28v-39.26c12.46-3.67,23.66-10.28,32.85-19.02l34.05,19.65v42.56
	c0,12.71,10.28,22.99,22.99,22.99c12.69,0,22.98-10.28,22.98-22.99v-16.01l44.8,25.87c3.62,2.1,7.57,3.09,11.46,3.09
	c7.95,0,15.69-4.13,19.94-11.5C468.39,361.42,464.63,347.36,453.63,341.02z M250,285.2c-19.41,0-35.19-15.79-35.19-35.2
	c0-19.41,15.78-35.2,35.19-35.2c19.41,0,35.2,15.79,35.2,35.2C285.21,269.4,269.41,285.2,250,285.2z"/>
</svg>
