<?xml version="1.0" encoding="utf-8"?>
<!-- Generator: Adobe Illustrator 25.4.1, SVG Export Plug-In . SVG Version: 6.00 Build 0)  -->
<svg version="1.1" id="Layer_1" xmlns="http://www.w3.org/2000/svg" xmlns:xlink="http://www.w3.org/1999/xlink" x="0px" y="0px"
	 viewBox="0 0 500 500" style="enable-background:new 0 0 500 500;" xml:space="preserve">
<style type="text/css">
	.st0{fill:url(#SVGID_1_);}
	.st1{fill:url(#SVGID_00000090990062451316384500000003827794403514723506_);}
	.st2{opacity:0.6;fill:url(#SVGID_00000106111863153206156720000014469351067652426403_);}
	.st3{opacity:0.4;fill:url(#SVGID_00000115510734151091876130000013359708163707226803_);}
	.st4{opacity:0.2;fill:url(#SVGID_00000019656391472275462980000016106043388955326135_);}
	.st5{fill:url(#SVGID_00000127006284115427992630000016344643172412299455_);}
	.st6{fill:url(#SVGID_00000147924711437464054500000014070979231138571667_);}
	.st7{fill:url(#SVGID_00000054262198230086204590000000508019131427636618_);}
	.st8{fill:url(#SVGID_00000035516537439155197650000016973434134974509973_);}
	.st9{fill:url(#SVGID_00000007401548410805413140000005208741163384697761_);}
	.st10{fill:url(#SVGID_00000102537674853340398740000017589805979017568135_);}
	.st11{fill:url(#SVGID_00000069384308393345271820000006815164921492161715_);}
	.st12{fill:url(#SVGID_00000010288425442465595580000013147281684987716229_);}
</style>
<g>
	<linearGradient id="SVGID_1_" gradientUnits="userSpaceOnUse" x1="214.3175" y1="489.3068" x2="274.1441" y2="300.9169">
		<stop  offset="0.1559" style="stop-color:#FFE036"/>
		<stop  offset="1" style="stop-color:#EE7525"/>
	</linearGradient>
	<path class="st0" d="M283.32,372.97h-4.71h-17.93L298,300.42c1.6-3.16,2.93-6.76,3.7-10.38c4.8-22.52-9.57-44.65-32.08-49.45
		c-22.51-4.8-44.65,9.57-49.44,32.09l-24.95,117.2l-0.77,3.6c-0.34,1.66-0.52,3.38-0.52,5.13c0,13.95,11.32,25.28,25.27,25.28h27.62
		l-14.9,62.16c-0.54,2.24,0.28,4.67,2.25,6.11c2.63,1.91,6.3,1.32,8.2-1.3l59.36-81.79c2.72-3.75,4.34-8.38,4.34-13.36
		C306.07,383.15,295.88,372.97,283.32,372.97z"/>
	<g>
		<g>
			
				<radialGradient id="SVGID_00000026864138691352063790000015845116839954318255_" cx="310.2965" cy="78.2354" r="364.7227" gradientTransform="matrix(-1 0 0 -0.7305 620.593 135.3854)" gradientUnits="userSpaceOnUse">
				<stop  offset="0" style="stop-color:#B6CCD2"/>
				<stop  offset="0.198" style="stop-color:#97B6BE"/>
				<stop  offset="1" style="stop-color:#5C87B4"/>
			</radialGradient>
			<path style="fill:url(#SVGID_00000026864138691352063790000015845116839954318255_);" d="M389.86,137.26
				C384.88,64.34,324.18,6.72,250,6.72c-74.19,0-134.88,57.62-139.86,130.54c-55.25,2.73-99.23,48.39-99.23,104.33
				c0,57.7,46.78,104.47,104.47,104.47h269.23c57.69,0,104.48-46.76,104.48-104.47C489.09,185.65,445.12,139.99,389.86,137.26z"/>
			
				<radialGradient id="SVGID_00000100378456343197770110000009774244880076116132_" cx="1205.6368" cy="-1650.8154" r="44.0028" gradientTransform="matrix(-0.8392 1.1536 -1.6186 -1.3126 -1363.4894 -3458.197)" gradientUnits="userSpaceOnUse">
				<stop  offset="0" style="stop-color:#FFFFFF"/>
				<stop  offset="1" style="stop-color:#FFFFFF;stop-opacity:0"/>
			</radialGradient>
			<path style="opacity:0.6;fill:url(#SVGID_00000100378456343197770110000009774244880076116132_);" d="M259.82,150.25
				c-39.33-31.91-54.69-80.48-34.3-108.51c20.4-28.04,68.82-24.88,108.17,7c39.31,31.9,54.66,80.51,34.28,108.51
				C347.56,185.3,299.14,182.15,259.82,150.25z"/>
			
				<radialGradient id="SVGID_00000182530507588377934960000007134981458464053437_" cx="1208.6543" cy="-1728.2878" r="34.5806" gradientTransform="matrix(-0.8392 1.1536 -1.6186 -1.3126 -1363.4894 -3458.197)" gradientUnits="userSpaceOnUse">
				<stop  offset="0" style="stop-color:#FFFFFF"/>
				<stop  offset="1" style="stop-color:#FFFFFF;stop-opacity:0"/>
			</radialGradient>
			<path style="opacity:0.4;fill:url(#SVGID_00000182530507588377934960000007134981458464053437_);" d="M390.6,244.55
				c-30.91-25.07-42.98-63.25-26.95-85.28c16.03-22.03,54.08-19.56,85,5.5c30.9,25.07,42.96,63.27,26.95,85.28
				C459.54,272.09,421.5,269.62,390.6,244.55z"/>
			
				<radialGradient id="SVGID_00000164474724718913857050000007142204088177524371_" cx="67.6796" cy="274.2015" r="25.2865" gradientTransform="matrix(0.901 -0.4338 1.2628 2.6229 -339.5529 -415.6483)" gradientUnits="userSpaceOnUse">
				<stop  offset="0" style="stop-color:#FFFFFF"/>
				<stop  offset="1" style="stop-color:#FFFFFF;stop-opacity:0"/>
			</radialGradient>
			<path style="opacity:0.2;fill:url(#SVGID_00000164474724718913857050000007142204088177524371_);" d="M85.61,248.06
				c-22.81-35.59-49.3-52.7-59.22-38.28c-9.89,14.41,0.57,54.96,23.36,90.55c22.82,35.58,49.32,52.71,59.22,38.28
				C118.86,324.17,108.41,283.65,85.61,248.06z"/>
		</g>
	</g>
	<g>
		
			<radialGradient id="SVGID_00000025430716046133902350000008758986538885411007_" cx="-93.3322" cy="371.2734" r="51.3491" gradientTransform="matrix(0.866 0.5 -0.5 0.866 367.8088 134.3015)" gradientUnits="userSpaceOnUse">
			<stop  offset="0" style="stop-color:#D1ECFA"/>
			<stop  offset="0.198" style="stop-color:#D6EEFB"/>
			<stop  offset="1" style="stop-color:#88BAE5"/>
		</radialGradient>
		<path style="fill:url(#SVGID_00000025430716046133902350000008758986538885411007_);" d="M129.92,414.02
			c-5.89,10.2-18.95,13.7-29.15,7.81c-10.21-5.89-13.71-18.94-7.82-29.15c5.9-10.21,42.35-30.66,42.35-30.66
			S135.81,403.81,129.92,414.02z"/>
		
			<radialGradient id="SVGID_00000077284085596221323170000010822275127151272877_" cx="1523.7964" cy="-1575.0615" r="8.0419" gradientTransform="matrix(-1.3036 0.5794 -0.7454 -1.946 916.4301 -3542.1443)" gradientUnits="userSpaceOnUse">
			<stop  offset="0" style="stop-color:#FFFFFF"/>
			<stop  offset="1" style="stop-color:#FFFFFF;stop-opacity:0"/>
		</radialGradient>
		<path style="fill:url(#SVGID_00000077284085596221323170000010822275127151272877_);" d="M93.58,410.47
			c-3.31-8.64-1.31-17.73,4.49-20.31c5.79-2.58,13.16,2.34,16.48,10.99c3.31,8.65,1.3,17.74-4.49,20.31
			C104.26,424.04,96.88,419.12,93.58,410.47z"/>
	</g>
	<g>
		
			<radialGradient id="SVGID_00000045605289779839820780000005930750643372844965_" cx="-32.2665" cy="408.2234" r="51.354" gradientTransform="matrix(0.866 0.5 -0.5 0.866 367.8088 134.3015)" gradientUnits="userSpaceOnUse">
			<stop  offset="0" style="stop-color:#D1ECFA"/>
			<stop  offset="0.198" style="stop-color:#D6EEFB"/>
			<stop  offset="1" style="stop-color:#88BAE5"/>
		</radialGradient>
		<path style="fill:url(#SVGID_00000045605289779839820780000005930750643372844965_);" d="M164.33,476.55
			c-5.9,10.2-18.95,13.7-29.16,7.81c-10.21-5.89-13.7-18.94-7.81-29.15c5.9-10.21,42.35-30.66,42.35-30.66
			S170.22,466.34,164.33,476.55z"/>
		
			<radialGradient id="SVGID_00000119101554666912927950000014555807663207840190_" cx="1516.9423" cy="-1609.235" r="8.0422" gradientTransform="matrix(-1.3036 0.5794 -0.7454 -1.946 916.4301 -3542.1443)" gradientUnits="userSpaceOnUse">
			<stop  offset="0" style="stop-color:#FFFFFF"/>
			<stop  offset="1" style="stop-color:#FFFFFF;stop-opacity:0"/>
		</radialGradient>
		<path style="fill:url(#SVGID_00000119101554666912927950000014555807663207840190_);" d="M127.98,473
			c-3.31-8.64-1.3-17.73,4.49-20.31c5.79-2.58,13.17,2.34,16.48,10.99c3.31,8.65,1.3,17.74-4.49,20.31
			C138.67,486.57,131.29,481.65,127.98,473z"/>
	</g>
	<g>
		
			<radialGradient id="SVGID_00000109711462765845388320000000333462825942858421_" cx="145.0533" cy="233.6391" r="51.345" gradientTransform="matrix(0.866 0.5 -0.5 0.866 367.8088 134.3015)" gradientUnits="userSpaceOnUse">
			<stop  offset="0" style="stop-color:#D1ECFA"/>
			<stop  offset="0.198" style="stop-color:#D6EEFB"/>
			<stop  offset="1" style="stop-color:#88BAE5"/>
		</radialGradient>
		<path style="fill:url(#SVGID_00000109711462765845388320000000333462825942858421_);" d="M405.17,414.02
			c-5.89,10.2-18.95,13.7-29.15,7.81c-10.21-5.89-13.71-18.94-7.81-29.15c5.89-10.21,42.34-30.66,42.34-30.66
			S411.07,403.81,405.17,414.02z"/>
		
			<radialGradient id="SVGID_00000010274282073945588550000016795100509821146004_" cx="1343.3635" cy="-1628.7834" r="8.0419" gradientTransform="matrix(-1.3036 0.5794 -0.7454 -1.946 916.4301 -3542.1443)" gradientUnits="userSpaceOnUse">
			<stop  offset="0" style="stop-color:#FFFFFF"/>
			<stop  offset="1" style="stop-color:#FFFFFF;stop-opacity:0"/>
		</radialGradient>
		<path style="fill:url(#SVGID_00000010274282073945588550000016795100509821146004_);" d="M368.83,410.47
			c-3.31-8.64-1.31-17.73,4.49-20.31c5.79-2.58,13.16,2.34,16.48,10.99c3.31,8.65,1.3,17.74-4.49,20.31
			C379.51,424.04,372.14,419.12,368.83,410.47z"/>
	</g>
	<g>
		
			<radialGradient id="SVGID_00000029044873509464756530000000162901196504429206_" cx="124.9875" cy="317.4299" r="51.3491" gradientTransform="matrix(0.866 0.5 -0.5 0.866 367.8083 134.3015)" gradientUnits="userSpaceOnUse">
			<stop  offset="0" style="stop-color:#D1ECFA"/>
			<stop  offset="0.198" style="stop-color:#D6EEFB"/>
			<stop  offset="1" style="stop-color:#88BAE5"/>
		</radialGradient>
		<path style="fill:url(#SVGID_00000029044873509464756530000000162901196504429206_);" d="M345.9,476.55
			c-5.89,10.2-18.95,13.7-29.16,7.81c-10.21-5.89-13.7-18.94-7.81-29.15c5.9-10.21,42.34-30.66,42.34-30.66
			S351.79,466.34,345.9,476.55z"/>
		
			<radialGradient id="SVGID_00000044881175345772894360000002108484277205946300_" cx="1397.917" cy="-1644.673" r="8.043" gradientTransform="matrix(-1.3036 0.5794 -0.7454 -1.946 916.4301 -3542.1443)" gradientUnits="userSpaceOnUse">
			<stop  offset="0" style="stop-color:#FFFFFF"/>
			<stop  offset="1" style="stop-color:#FFFFFF;stop-opacity:0"/>
		</radialGradient>
		<path style="fill:url(#SVGID_00000044881175345772894360000002108484277205946300_);" d="M309.56,473
			c-3.31-8.64-1.3-17.73,4.49-20.31c5.79-2.58,13.17,2.34,16.48,10.99c3.31,8.65,1.29,17.74-4.49,20.31
			C320.25,486.57,312.87,481.65,309.56,473z"/>
	</g>
</g>
</svg>
